<svg width="1512" height="982" viewBox="0 0 1512 982" fill="none" xmlns="http://www.w3.org/2000/svg">
<g clip-path="url(#clip0_105_243811)">
<rect width="1512" height="982" fill="#080B11"/>
<path d="M576.889 617L-528 976" stroke="#151B2C" stroke-width="0.8975"/>
<path d="M594.839 617L-168.075 976" stroke="#151B2C" stroke-width="0.8975"/>
<path d="M612.788 617L47.0947 976" stroke="#151B2C" stroke-width="0.8975"/>
<path d="M630.738 617L196.782 976" stroke="#151B2C" stroke-width="0.8975"/>
<path d="M648.688 617L311.565 976" stroke="#151B2C" stroke-width="0.8975"/>
<path d="M666.639 617L405.81 976" stroke="#151B2C" stroke-width="0.8975"/>
<path d="M684.588 617L487.226 976" stroke="#151B2C" stroke-width="0.8975"/>
<path d="M702.538 617L560.4 976" stroke="#151B2C" stroke-width="0.8975"/>
<path d="M720.488 617L628.313 976" stroke="#151B2C" stroke-width="0.8975"/>
<path d="M738.438 617L693.086 976" stroke="#151B2C" stroke-width="0.8975"/>
<path d="M756.389 617V976" stroke="#151B2C" stroke-width="0.8975"/>
<path d="M774.338 617L819.69 976" stroke="#151B2C" stroke-width="0.8975"/>
<path d="M792.288 617L884.464 976" stroke="#151B2C" stroke-width="0.8975"/>
<path d="M810.238 617L952.376 976" stroke="#151B2C" stroke-width="0.8975"/>
<path d="M828.188 617L1025.55 976" stroke="#151B2C" stroke-width="0.8975"/>
<path d="M846.139 617L1106.97 976" stroke="#151B2C" stroke-width="0.8975"/>
<path d="M864.088 617L1201.21 976" stroke="#151B2C" stroke-width="0.8975"/>
<path d="M882.038 617L1315.99 976" stroke="#151B2C" stroke-width="0.8975"/>
<path d="M899.988 617L1465.68 976" stroke="#151B2C" stroke-width="0.8975"/>
<path d="M917.938 617L1680.85 976" stroke="#151B2C" stroke-width="0.8975"/>
<path d="M935.889 617L2040.78 976" stroke="#151B2C" stroke-width="0.8975"/>
<path d="M576.889 617H935.889" stroke="#151B2C" stroke-width="0.8975"/>
<path d="M576.889 617H935.889" stroke="#151B2C" stroke-width="0.8975"/>
<path d="M576.889 617H935.889" stroke="#151B2C" stroke-width="0.8975"/>
<path d="M576.888 617H935.889" stroke="#151B2C" stroke-width="0.8975"/>
<path d="M576.884 617.001H935.894" stroke="#151B2C" stroke-width="0.8975"/>
<path d="M576.858 617.01H935.919" stroke="#151B2C" stroke-width="0.8975"/>
<path d="M576.753 617.044H936.023" stroke="#151B2C" stroke-width="0.8975"/>
<path d="M576.41 617.156H936.367" stroke="#151B2C" stroke-width="0.8975"/>
<path d="M575.458 617.465H937.319" stroke="#151B2C" stroke-width="0.8975"/>
<path d="M573.131 618.221H939.645" stroke="#151B2C" stroke-width="0.8975"/>
<path d="M567.975 619.896H944.803" stroke="#151B2C" stroke-width="0.8975"/>
<path d="M557.412 623.328H955.364" stroke="#151B2C" stroke-width="0.8975"/>
<path d="M537.136 629.917H975.642" stroke="#151B2C" stroke-width="0.8975"/>
<path d="M500.255 641.9H1012.52" stroke="#151B2C" stroke-width="0.8975"/>
<path d="M436.176 662.72H1076.6" stroke="#151B2C" stroke-width="0.8975"/>
<path d="M329.128 697.502H1183.65" stroke="#151B2C" stroke-width="0.8975"/>
<path d="M156.29 753.661H1356.49" stroke="#151B2C" stroke-width="0.8975"/>
<path d="M-114.568 841.668H1627.34" stroke="#151B2C" stroke-width="0.8975"/>
<path d="M-528 976H2040.78" stroke="#151B2C" stroke-width="0.8975"/>
<path d="M304.5 753.5L118 841.5H259L397 753.5H304.5Z" fill="#10141C"/>
<path d="M1254 842L1115.5 753.5H1207.5L1395.5 841.5L1254 842Z" fill="#10141C"/>
<path d="M437.5 841.5L312 976H406L503 841.5H437.5Z" fill="#10141C"/>
<path d="M1075 841.5L1201 976H1107L1009.5 841.5H1075Z" fill="#10141C"/>
</g>
<defs>
<clipPath id="clip0_105_243811">
<rect width="1512" height="982" fill="white"/>
</clipPath>
</defs>
</svg>
