<svg width="553" height="770" viewBox="0 0 553 770" fill="none" xmlns="http://www.w3.org/2000/svg">
<path d="M0 19.8718C0 8.89691 8.89692 0 19.8718 0H533.128C544.103 0 553 8.89692 553 19.8718V750.128C553 761.103 544.103 770 533.128 770H19.8718C8.8969 770 0 761.103 0 750.128V19.8718Z" fill="#0A0D15"/>
<g filter="url(#filter0_bi_1814_2111)">
<path d="M41.1132 0H512.702L532.851 25.799L553 51.5979V718.402L512.702 770H41.1132L0 720.387V49.6134L41.1132 0Z" fill="#0A0D15" fill-opacity="0.8"/>
<path d="M0.440135 49.7721L41.3201 0.440135H512.487L532.504 26.0699L552.56 51.7494V718.25L512.487 769.56H41.3201L0.440135 720.228V49.7721Z" stroke="white" stroke-opacity="0.15" stroke-width="0.88027"/>
</g>
<defs>
<filter id="filter0_bi_1814_2111" x="-20" y="-20" width="593" height="810" filterUnits="userSpaceOnUse" color-interpolation-filters="sRGB">
<feFlood flood-opacity="0" result="BackgroundImageFix"/>
<feGaussianBlur in="BackgroundImageFix" stdDeviation="10"/>
<feComposite in2="SourceAlpha" operator="in" result="effect1_backgroundBlur_1814_2111"/>
<feBlend mode="normal" in="SourceGraphic" in2="effect1_backgroundBlur_1814_2111" result="shape"/>
<feColorMatrix in="SourceAlpha" type="matrix" values="0 0 0 0 0 0 0 0 0 0 0 0 0 0 0 0 0 0 127 0" result="hardAlpha"/>
<feOffset/>
<feGaussianBlur stdDeviation="21.1265"/>
<feComposite in2="hardAlpha" operator="arithmetic" k2="-1" k3="1"/>
<feColorMatrix type="matrix" values="0 0 0 0 1 0 0 0 0 1 0 0 0 0 1 0 0 0 0.13 0"/>
<feBlend mode="normal" in2="shape" result="effect2_innerShadow_1814_2111"/>
</filter>
</defs>
</svg>
