<svg width="1512" height="360" viewBox="0 0 1512 360" fill="none" xmlns="http://www.w3.org/2000/svg">
<path d="M576.891 0.449219L-527.998 359.449" stroke="#151B2C" stroke-width="0.8975"/>
<path d="M594.836 0.449219L-168.078 359.449" stroke="#151B2C" stroke-width="0.8975"/>
<path d="M612.789 0.449219L47.0956 359.449" stroke="#151B2C" stroke-width="0.8975"/>
<path d="M630.742 0.449219L196.786 359.449" stroke="#151B2C" stroke-width="0.8975"/>
<path d="M648.688 0.449219L311.564 359.449" stroke="#151B2C" stroke-width="0.8975"/>
<path d="M666.641 0.449219L405.812 359.449" stroke="#151B2C" stroke-width="0.8975"/>
<path d="M684.586 0.449219L487.224 359.449" stroke="#151B2C" stroke-width="0.8975"/>
<path d="M702.539 0.449219L560.401 359.449" stroke="#151B2C" stroke-width="0.8975"/>
<path d="M720.492 0.449219L628.317 359.449" stroke="#151B2C" stroke-width="0.8975"/>
<path d="M738.438 0.449219L693.085 359.449" stroke="#151B2C" stroke-width="0.8975"/>
<path d="M756.391 0.449219V359.449" stroke="#151B2C" stroke-width="0.8975"/>
<path d="M774.336 0.449219L819.688 359.449" stroke="#151B2C" stroke-width="0.8975"/>
<path d="M792.289 0.449219L884.465 359.449" stroke="#151B2C" stroke-width="0.8975"/>
<path d="M810.242 0.449219L952.38 359.449" stroke="#151B2C" stroke-width="0.8975"/>
<path d="M828.188 0.449219L1025.55 359.449" stroke="#151B2C" stroke-width="0.8975"/>
<path d="M846.141 0.449219L1106.97 359.449" stroke="#151B2C" stroke-width="0.8975"/>
<path d="M864.086 0.449219L1201.21 359.449" stroke="#151B2C" stroke-width="0.8975"/>
<path d="M882.039 0.449219L1316 359.449" stroke="#151B2C" stroke-width="0.8975"/>
<path d="M899.992 0.449219L1465.69 359.449" stroke="#151B2C" stroke-width="0.8975"/>
<path d="M917.938 0.449219L1680.85 359.449" stroke="#151B2C" stroke-width="0.8975"/>
<path d="M935.891 0.449219L2040.78 359.449" stroke="#151B2C" stroke-width="0.8975"/>
<path d="M576.891 0.449219H935.891" stroke="#151B2C" stroke-width="0.8975"/>
<path d="M576.891 0.449219H935.891" stroke="#151B2C" stroke-width="0.8975"/>
<path d="M576.891 0.449219H935.891" stroke="#151B2C" stroke-width="0.8975"/>
<path d="M576.891 0.449219H935.892" stroke="#151B2C" stroke-width="0.8975"/>
<path d="M576.883 0.451172H935.893" stroke="#151B2C" stroke-width="0.8975"/>
<path d="M576.859 0.458984H935.92" stroke="#151B2C" stroke-width="0.8975"/>
<path d="M576.75 0.494141H936.02" stroke="#151B2C" stroke-width="0.8975"/>
<path d="M576.406 0.605469H936.363" stroke="#151B2C" stroke-width="0.8975"/>
<path d="M575.461 0.914062H937.321" stroke="#151B2C" stroke-width="0.8975"/>
<path d="M573.133 1.66992H939.647" stroke="#151B2C" stroke-width="0.8975"/>
<path d="M567.977 3.3457H944.805" stroke="#151B2C" stroke-width="0.8975"/>
<path d="M557.414 6.77734H955.366" stroke="#151B2C" stroke-width="0.8975"/>
<path d="M537.133 13.3652H975.639" stroke="#151B2C" stroke-width="0.8975"/>
<path d="M500.258 25.3496H1012.53" stroke="#151B2C" stroke-width="0.8975"/>
<path d="M436.172 46.1699H1076.6" stroke="#151B2C" stroke-width="0.8975"/>
<path d="M329.125 80.9512H1183.65" stroke="#151B2C" stroke-width="0.8975"/>
<path d="M156.289 137.109H1356.49" stroke="#151B2C" stroke-width="0.8975"/>
<path d="M-114.57 225.117H1627.34" stroke="#151B2C" stroke-width="0.8975"/>
<path d="M-528 359.449H2040.78" stroke="#151B2C" stroke-width="0.8975"/>
<path d="M304.5 136.949L118 224.949H259L397 136.949H304.5Z" fill="#10141C"/>
<path d="M1254 225.449L1115.5 136.949H1207.5L1395.5 224.949L1254 225.449Z" fill="#10141C"/>
<path d="M437.5 224.949L312 359.449H406L503 224.949H437.5Z" fill="#10141C"/>
<path d="M1075 224.949L1201 359.449H1107L1009.5 224.949H1075Z" fill="#10141C"/>
</svg>
