<svg width="882" height="284" viewBox="0 0 882 284" fill="none" xmlns="http://www.w3.org/2000/svg">
<mask id="path-1-inside-1_1603_67248" fill="white">
<path d="M66.118 4.0995C69.9471 1.43077 74.5023 8.88431e-07 79.1697 9.44089e-07L244.174 2.91174e-06C256.78 3.06207e-06 267 10.2197 267 22.8263L267 74.0742C267 74.6265 267.448 75.0742 268 75.0742L615 75.0742C615.552 75.0742 616 74.6265 616 74.0742L616 22.8263C616 10.2197 626.22 7.46759e-06 638.826 7.61793e-06L798.372 9.52049e-06C802.386 9.56836e-06 806.329 1.05856 809.804 3.06889L870.605 38.2489C877.657 42.3292 882 49.8589 882 58.0063L882 261.174C882 273.78 871.78 284 859.174 284L22.8263 284C10.2197 284 1.21869e-07 273.78 2.72201e-07 261.174L2.64619e-06 62.095C2.73521e-06 54.63 3.65024 47.6366 9.7746 43.3682L66.118 4.0995Z"/>
</mask>
<g filter="url(#filter0_i_1603_67248)">
<path d="M66.118 4.0995C69.9471 1.43077 74.5023 8.88431e-07 79.1697 9.44089e-07L244.174 2.91174e-06C256.78 3.06207e-06 267 10.2197 267 22.8263L267 74.0742C267 74.6265 267.448 75.0742 268 75.0742L615 75.0742C615.552 75.0742 616 74.6265 616 74.0742L616 22.8263C616 10.2197 626.22 7.46759e-06 638.826 7.61793e-06L798.372 9.52049e-06C802.386 9.56836e-06 806.329 1.05856 809.804 3.06889L870.605 38.2489C877.657 42.3292 882 49.8589 882 58.0063L882 261.174C882 273.78 871.78 284 859.174 284L22.8263 284C10.2197 284 1.21869e-07 273.78 2.72201e-07 261.174L2.64619e-06 62.095C2.73521e-06 54.63 3.65024 47.6366 9.7746 43.3682L66.118 4.0995Z" fill="#0A0D15"/>
</g>
<path d="M267 74.0742L266.17 74.0742L266.17 74.0742L267 74.0742ZM615 75.0742L615 75.9042H615L615 75.0742ZM616 74.0742L616.83 74.0742L616.83 74.0742L616 74.0742ZM870.605 38.2489L871.021 37.5304L870.605 38.2489ZM798.372 9.52049e-06L798.372 -0.82999L798.372 9.52049e-06ZM809.804 3.06889L810.22 2.35048L809.804 3.06889ZM616 22.8263L616.83 22.8263L616 22.8263ZM638.826 7.61793e-06L638.826 0.830008L638.826 7.61793e-06ZM66.118 4.0995L65.6434 3.41857L66.118 4.0995ZM79.1697 9.44089e-07L79.1697 0.830001L244.174 0.830003L244.174 2.91174e-06L244.174 -0.829997L79.1697 -0.829999L79.1697 9.44089e-07ZM267 22.8263L266.17 22.8263L266.17 74.0742L267 74.0742L267.83 74.0742L267.83 22.8263L267 22.8263ZM267 74.0742L266.17 74.0742C266.17 75.0849 266.989 75.9042 268 75.9042L268 75.0742L268 74.2442C267.906 74.2442 267.83 74.1681 267.83 74.0742L267 74.0742ZM268 75.0742L268 75.9042L615 75.9042L615 75.0742L615 74.2442L268 74.2442L268 75.0742ZM615 75.0742L615 75.9042C616.011 75.9042 616.83 75.0849 616.83 74.0742L616 74.0742L615.17 74.0742C615.17 74.1681 615.094 74.2442 615 74.2442L615 75.0742ZM616 74.0742L616.83 74.0742L616.83 22.8263L616 22.8263L615.17 22.8263L615.17 74.0742L616 74.0742ZM638.826 7.61793e-06L638.826 0.830008L798.372 0.83001L798.372 9.52049e-06L798.372 -0.82999L638.826 -0.829992L638.826 7.61793e-06ZM809.804 3.06889L809.388 3.7873L870.19 38.9673L870.605 38.2489L871.021 37.5304L810.22 2.35048L809.804 3.06889ZM882 58.0063L881.17 58.0063L881.17 261.174L882 261.174L882.83 261.174L882.83 58.0063L882 58.0063ZM859.174 284L859.174 283.17L22.8263 283.17L22.8263 284L22.8263 284.83L859.174 284.83L859.174 284ZM2.72201e-07 261.174L0.83 261.174L0.830003 62.095L2.64619e-06 62.095L-0.829997 62.095L-0.83 261.174L2.72201e-07 261.174ZM9.7746 43.3682L10.2492 44.0492L66.5926 4.78044L66.118 4.0995L65.6434 3.41857L9.30002 42.6873L9.7746 43.3682ZM22.8263 284L22.8263 283.17C10.6781 283.17 0.83 273.322 0.83 261.174L2.72201e-07 261.174L-0.83 261.174C-0.83 274.239 9.76128 284.83 22.8263 284.83L22.8263 284ZM882 261.174L881.17 261.174C881.17 273.322 871.322 283.17 859.174 283.17L859.174 284L859.174 284.83C872.239 284.83 882.83 274.239 882.83 261.174L882 261.174ZM870.605 38.2489L870.19 38.9673C876.985 42.8992 881.17 50.1551 881.17 58.0063L882 58.0063L882.83 58.0063C882.83 49.5626 878.33 41.7591 871.021 37.5304L870.605 38.2489ZM798.372 9.52049e-06L798.372 0.83001C802.24 0.83001 806.04 1.85007 809.388 3.7873L809.804 3.06889L810.22 2.35048C806.619 0.267049 802.532 -0.82999 798.372 -0.82999L798.372 9.52049e-06ZM616 22.8263L616.83 22.8263C616.83 10.6781 626.678 0.830007 638.826 0.830008L638.826 7.61793e-06L638.826 -0.829992C625.761 -0.829993 615.17 9.76129 615.17 22.8263L616 22.8263ZM244.174 2.91174e-06L244.174 0.830003C256.322 0.830003 266.17 10.6781 266.17 22.8263L267 22.8263L267.83 22.8263C267.83 9.76129 257.239 -0.829997 244.174 -0.829997L244.174 2.91174e-06ZM2.64619e-06 62.095L0.830003 62.095C0.830003 54.9014 4.34751 48.1624 10.2492 44.0492L9.7746 43.3682L9.30002 42.6873C2.95296 47.1109 -0.829997 54.3585 -0.829997 62.095L2.64619e-06 62.095ZM79.1697 9.44089e-07L79.1697 -0.829999C74.3326 -0.829999 69.6118 0.652798 65.6434 3.41857L66.118 4.0995L66.5926 4.78044C70.2825 2.20875 74.672 0.830001 79.1697 0.830001L79.1697 9.44089e-07Z" fill="white" fill-opacity="0.15" mask="url(#path-1-inside-1_1603_67248)"/>
<defs>
<filter id="filter0_i_1603_67248" x="0" y="0" width="882" height="284" filterUnits="userSpaceOnUse" color-interpolation-filters="sRGB">
<feFlood flood-opacity="0" result="BackgroundImageFix"/>
<feBlend mode="normal" in="SourceGraphic" in2="BackgroundImageFix" result="shape"/>
<feColorMatrix in="SourceAlpha" type="matrix" values="0 0 0 0 0 0 0 0 0 0 0 0 0 0 0 0 0 0 127 0" result="hardAlpha"/>
<feMorphology radius="13.7841" operator="erode" in="SourceAlpha" result="effect1_innerShadow_1603_67248"/>
<feOffset/>
<feGaussianBlur stdDeviation="22.8263"/>
<feComposite in2="hardAlpha" operator="arithmetic" k2="-1" k3="1"/>
<feColorMatrix type="matrix" values="0 0 0 0 1 0 0 0 0 1 0 0 0 0 1 0 0 0 0.1 0"/>
<feBlend mode="normal" in2="shape" result="effect1_innerShadow_1603_67248"/>
</filter>
</defs>
</svg>
