<svg width="12" height="11" viewBox="0 0 12 11" fill="none" xmlns="http://www.w3.org/2000/svg">
<path d="M0.665364 4.83398L0.665364 6.16732L8.66536 6.16732L8.66536 7.50065L9.9987 7.50065L9.9987 6.16732L11.332 6.16732L11.332 4.83398L9.9987 4.83398L9.9987 3.50065L8.66536 3.50065L8.66536 4.83398L0.665364 4.83398ZM7.33203 2.16732L8.66536 2.16732L8.66536 3.50065L7.33203 3.50065L7.33203 2.16732ZM7.33203 2.16732L5.9987 2.16732L5.9987 0.833984L7.33203 0.833984L7.33203 2.16732ZM7.33203 8.83398L8.66536 8.83398L8.66536 7.50065L7.33203 7.50065L7.33203 8.83398ZM7.33203 8.83398L5.9987 8.83398L5.9987 10.1673L7.33203 10.1673L7.33203 8.83398Z" fill="white"/>
</svg>
