<svg width="11" height="10" viewBox="0 0 11 10" fill="none" xmlns="http://www.w3.org/2000/svg">
<path d="M0.166341 4.33325L0.166341 5.66659L8.16634 5.66659L8.16634 6.99992L9.49967 6.99992L9.49967 5.66658L10.833 5.66658L10.833 4.33325L9.49967 4.33325L9.49967 2.99992L8.16634 2.99992L8.16634 4.33325L0.166341 4.33325ZM6.83301 1.66659L8.16634 1.66659L8.16634 2.99992L6.83301 2.99992L6.83301 1.66659ZM6.83301 1.66659L5.49967 1.66659L5.49967 0.333252L6.83301 0.333252L6.83301 1.66659ZM6.83301 8.33325L8.16634 8.33325L8.16634 6.99992L6.83301 6.99992L6.83301 8.33325ZM6.83301 8.33325L5.49967 8.33325L5.49967 9.66658L6.83301 9.66658L6.83301 8.33325Z" fill="black"/>
</svg>
