<svg width="36" height="36" viewBox="0 0 36 36" fill="none" xmlns="http://www.w3.org/2000/svg">
<path d="M17.8924 3.73438C17.8924 3.73438 17.5544 6.34437 14.412 7.21484C11.2693 8.08531 5.32181 7.21484 5.32181 7.21484L4.31318 8.14198L4.88883 8.78584L4.81198 8.98805L1.16677 18.6428L1.125 18.755V18.8757C1.125 20.2044 1.70529 21.2834 2.55544 21.9694C3.40552 22.6555 4.49346 22.9756 5.57445 22.9758C6.65557 22.976 7.74555 22.6555 8.59577 21.9694C9.44599 21.2835 10.0262 20.205 10.0262 18.8757V18.7461L9.97784 18.6274L6.11508 9.16152C7.79878 8.95037 11.801 8.56105 14.2362 9.26923C15.8579 9.74103 16.778 10.6997 17.2903 11.5171L14.8205 24.9247L16.3256 27.0559C15.0776 27.6008 14.034 28.8025 13.6846 30.6661C9.74173 31.1017 6.97184 32.1244 6.97184 33.316H28.9006C28.9006 32.1245 26.1309 31.1017 22.1881 30.6661C21.8429 28.7958 20.8121 27.5645 19.5733 27.0165L21.0499 24.9247L18.5625 11.4115C19.0868 10.6187 19.996 9.72085 21.5487 9.26923C24.0064 8.55437 28.0607 8.95845 29.7158 9.1682L26.1387 18.6428L26.0947 18.7549V18.8756C26.0947 20.2043 26.675 21.2833 27.5252 21.9694C28.3752 22.6555 29.4653 22.9755 30.5463 22.9757C31.6273 22.976 32.7173 22.6554 33.5676 21.9694C34.4177 21.2834 34.998 20.2049 34.998 18.8756V18.746L34.9496 18.6273L31.0078 8.97041L30.9419 8.81009L31.5593 8.2168L30.4629 7.21484C30.4629 7.21484 24.5175 8.08531 21.375 7.21484C18.2325 6.34437 17.8924 3.73438 17.8924 3.73438ZM5.45133 11.0161L8.56055 18.6362H2.57302L5.45133 11.0161ZM30.4234 11.0161L33.5325 18.6362H27.5428L30.4233 11.0161L30.4234 11.0161Z" fill="white"/>
</svg>
