<svg width="20" height="14" viewBox="0 0 20 14" fill="none" xmlns="http://www.w3.org/2000/svg">
<path d="M10 0C5.031 0 0 1.546 0 4.5C0 7.454 5.031 9 10 9C14.969 9 20 7.454 20 4.5C20 1.546 14.97 0 10 0ZM5 9.938V12.938C6.237 13.237 7.605 13.42 9 13.479V10.479C7.65239 10.4275 6.31287 10.2464 5 9.938ZM11 10.478V13.478C12.3476 13.4265 13.6871 13.2454 15 12.937V9.937C13.6871 10.2454 12.3476 10.4265 11 10.478ZM17 9.297V12.297C18.801 11.542 20 10.44 20 9V6C20 7.44 18.801 8.542 17 9.297ZM3 12.297V9.297C1.2 8.542 0 7.439 0 6V9C0 10.439 1.2 11.542 3 12.297Z" fill="#D5A449"/>
</svg>
