<svg width="32" height="34" viewBox="0 0 32 34" fill="none" xmlns="http://www.w3.org/2000/svg">
<path d="M16.0116 0.519742C12.805 0.519742 9.9031 0.720273 7.76954 1.05152C6.7029 1.2171 5.83215 1.41081 5.17683 1.65128C4.84918 1.77152 4.5744 1.89843 4.33534 2.07977C4.10766 2.25252 3.86776 2.52695 3.84526 2.90594H3.79252C3.79252 3.61469 3.81798 4.31373 3.86734 5.00216H2.04568C2.03724 4.44304 2.04589 3.88265 2.07212 3.32345L0.186898 2.88189C-0.413852 10.3823 2.50763 17.6824 7.88401 22.8812L8.98475 20.8004C8.68958 20.5559 8.40467 20.3038 8.12996 20.0445C8.54101 19.6148 8.99431 19.2177 9.48558 18.8603C10.4326 19.7864 11.4671 20.5172 12.5662 21.0157C14.1211 22.2633 13.1324 23.0806 10.9138 23.5645C15.0526 24.3098 13.6524 27.9427 9.92068 30.0553C9.77021 30.0743 9.62143 30.0921 9.47912 30.1124C8.63206 30.2332 7.94096 30.3732 7.41151 30.5518C7.14678 30.6411 6.92227 30.7346 6.71499 30.8792C6.50757 31.0237 6.2491 31.2803 6.2491 31.6812C6.2491 32.0821 6.50764 32.3365 6.71499 32.481C6.92227 32.6255 7.14671 32.7191 7.41151 32.8084C7.94096 32.987 8.63213 33.1271 9.47912 33.2479C11.1732 33.4895 13.4717 33.6367 16.0116 33.6367C18.5515 33.6367 20.8499 33.4895 22.544 33.2479C23.3911 33.1271 24.0822 32.987 24.6117 32.8084C24.8764 32.7191 25.1009 32.6255 25.3081 32.4811C25.5154 32.3366 25.774 32.0821 25.774 31.6813C25.774 31.2803 25.5154 31.0237 25.3081 30.8792C25.1009 30.7347 24.8764 30.6411 24.6116 30.5518C24.0822 30.3732 23.391 30.2332 22.5439 30.1124C22.4023 30.0922 22.2542 30.0741 22.1044 30.0552C18.3725 27.9427 16.9723 24.31 21.1113 23.5645C18.8916 23.0803 17.9029 22.2622 19.4612 21.0136C20.5679 20.5108 21.609 19.7722 22.5614 18.836C23.0288 19.1716 23.4642 19.5418 23.8601 19.9413C23.5714 20.2347 23.2738 20.5219 22.9657 20.8003L24.1039 22.8812C29.6669 17.8218 32.2739 10.258 31.8404 2.84209L29.9179 3.40248C29.9495 3.93756 29.9629 4.47053 29.9574 5.00209H28.1578C28.2072 4.31359 28.2326 3.61448 28.2326 2.9058H28.1799C28.1571 2.52681 27.9153 2.25238 27.6877 2.07963C27.4485 1.89822 27.1737 1.77145 26.846 1.65121C26.1907 1.4106 25.32 1.21689 24.2532 1.0513C22.1198 0.720133 19.218 0.519531 16.0112 0.519531L16.0116 0.519742ZM16.0116 1.83374C19.1631 1.83374 22.0181 2.03441 24.0514 2.35005C25.0681 2.5079 25.8837 2.69683 26.3937 2.884C26.4668 2.91086 26.5185 2.93673 26.5783 2.9631C26.5185 2.98947 26.4672 3.01527 26.3937 3.0422C25.8838 3.22937 25.068 3.42048 24.0514 3.57834C22.0181 3.89404 19.1631 4.09471 16.0116 4.09471C12.8602 4.09471 10.0051 3.89397 7.97176 3.57827C6.95504 3.42041 6.13941 3.2293 5.62951 3.04213C5.55568 3.01499 5.50505 2.98954 5.44494 2.96303C5.50491 2.93659 5.55582 2.911 5.62951 2.88393C6.13941 2.69676 6.95511 2.50776 7.97183 2.34998C10.0051 2.03427 12.8601 1.83374 16.0116 1.83374ZM2.14243 6.88738H4.06505C4.63156 10.9569 6.04998 14.5395 8.01577 17.1706C7.52541 17.5742 7.07309 18.0121 6.66662 18.4846C3.94918 15.2181 2.51523 11.1266 2.14243 6.88738ZM27.9603 6.88738H29.8588C29.4661 11.0803 27.907 15.0544 25.284 18.3352C24.9015 17.9094 24.482 17.5104 24.0294 17.142C25.9848 14.5137 27.3955 10.9422 27.9603 6.88745V6.88738Z" fill="url(#paint0_linear_1985_144237)"/>
<defs>
<linearGradient id="paint0_linear_1985_144237" x1="15.9981" y1="0.519531" x2="15.9981" y2="33.6367" gradientUnits="userSpaceOnUse">
<stop stop-color="#F46F0F"/>
<stop offset="1" stop-color="#C1272D"/>
</linearGradient>
</defs>
</svg>
