<svg width="34" height="26" viewBox="0 0 34 26" fill="none" xmlns="http://www.w3.org/2000/svg">
<path d="M20.6039 0.921875L14.3602 5.11953L25.3711 11.7922L31.5656 7.56641L20.6039 0.921875ZM14.1141 6.4625L14.9227 10.1961L15.8016 10.7234L17.1094 9.78828C17.5875 9.44375 18.1359 9.31016 18.6703 9.32422C18.7336 9.32422 18.7969 9.33125 18.8602 9.33125L14.1141 6.4625ZM32.3461 8.56484L26.1094 12.8187L27.157 16.9883L33.4289 12.8469L32.3461 8.56484ZM18.5367 10.5828C18.2836 10.5898 18.0516 10.6672 17.8406 10.8148L0.652743 23.1266C0.59579 23.1687 0.533915 23.2742 0.576805 23.5555C0.619696 23.8437 0.794071 24.2164 1.06618 24.5117C1.33759 24.807 1.68774 25.018 2.09485 25.0672C2.50196 25.1164 2.99485 25.025 3.61501 24.5961L20.4633 12.7555V12.7484C20.7797 12.5305 20.8008 12.3969 20.7586 12.1508C20.7164 11.9047 20.5055 11.5391 20.168 11.2367C19.8305 10.9414 19.3734 10.7023 18.9516 10.618C18.8461 10.5969 18.7477 10.5828 18.6492 10.5828H18.5367ZM21.6305 11.0117C21.8133 11.293 21.9469 11.6023 22.0031 11.9398C22.1156 12.5867 21.8344 13.3391 21.1945 13.782V13.7891L21.075 13.8734L25.7789 16.6859L24.8438 12.9523L21.6305 11.0117Z" fill="#F47010"/>
</svg>
