<svg width="564" height="556" viewBox="0 0 564 556" fill="none" xmlns="http://www.w3.org/2000/svg">
<mask id="path-1-inside-1_2037_181134" fill="white">
<path fill-rule="evenodd" clip-rule="evenodd" d="M564 22.8263C564 10.2197 553.78 0 541.174 0H66.6013C60.3308 0 54.3363 2.57959 50.0253 7.13315L6.25027 53.3709C2.23673 57.6102 0 63.2262 0 69.064V532.614C0 545.22 10.2197 555.44 22.8263 555.44H492.295C498.038 555.44 503.57 553.275 507.788 549.377L556.667 504.201C561.342 499.88 564 493.804 564 487.438V339.646C564 329.526 555.648 320.905 551.625 311.619C550.597 309.246 550.027 306.627 550.027 303.875V138.385C550.027 135.633 550.597 133.014 551.625 130.641C555.648 121.355 564 112.734 564 102.614V22.8263Z"/>
</mask>
<g filter="url(#filter0_i_2037_181134)">
<path fill-rule="evenodd" clip-rule="evenodd" d="M564 22.8263C564 10.2197 553.78 0 541.174 0H66.6013C60.3308 0 54.3363 2.57959 50.0253 7.13315L6.25027 53.3709C2.23673 57.6102 0 63.2262 0 69.064V532.614C0 545.22 10.2197 555.44 22.8263 555.44H492.295C498.038 555.44 503.57 553.275 507.788 549.377L556.667 504.201C561.342 499.88 564 493.804 564 487.438V339.646C564 329.526 555.648 320.905 551.625 311.619C550.597 309.246 550.027 306.627 550.027 303.875V138.385C550.027 135.633 550.597 133.014 551.625 130.641C555.648 121.355 564 112.734 564 102.614V22.8263Z" fill="#0A0D15"/>
</g>
<path d="M551.625 130.641L552.498 131.019L551.625 130.641ZM551.625 311.619L552.498 311.241L551.625 311.619ZM556.667 504.201L556.021 503.502L556.667 504.201ZM507.788 549.377L507.142 548.678L507.788 549.377ZM66.6013 0.951096H541.174V-0.951096H66.6013V0.951096ZM6.94094 54.0248L50.716 7.78703L49.3346 6.47927L5.55961 52.717L6.94094 54.0248ZM0.951096 532.614V69.064H-0.951096V532.614H0.951096ZM492.295 554.489H22.8263V556.391H492.295V554.489ZM556.021 503.502L507.142 548.678L508.433 550.075L557.312 504.899L556.021 503.502ZM563.049 339.646V487.438H564.951V339.646H563.049ZM552.498 311.241C551.52 308.985 550.978 306.495 550.978 303.875H549.076C549.076 306.76 549.674 309.507 550.753 311.997L552.498 311.241ZM550.978 303.875V138.385H549.076V303.875H550.978ZM550.978 138.385C550.978 135.765 551.52 133.275 552.498 131.019L550.753 130.263C549.674 132.753 549.076 135.501 549.076 138.385H550.978ZM563.049 22.8263V102.614H564.951V22.8263H563.049ZM552.498 131.019C554.485 126.433 557.497 122.099 560.149 117.408C562.757 112.797 564.951 107.931 564.951 102.614H563.049C563.049 107.417 561.067 111.922 558.493 116.472C555.965 120.944 552.789 125.563 550.753 130.263L552.498 131.019ZM564.951 339.646C564.951 334.329 562.757 329.463 560.149 324.852C557.497 320.161 554.485 315.827 552.498 311.241L550.753 311.997C552.789 316.697 555.965 321.317 558.493 325.788C561.067 330.338 563.049 334.843 563.049 339.646H564.951ZM557.312 504.899C562.182 500.399 564.951 494.069 564.951 487.438H563.049C563.049 493.538 560.501 499.362 556.021 503.502L557.312 504.899ZM492.295 556.391C498.277 556.391 504.04 554.136 508.433 550.075L507.142 548.678C503.1 552.414 497.799 554.489 492.295 554.489V556.391ZM-0.951096 532.614C-0.951096 545.746 9.69442 556.391 22.8263 556.391V554.489C10.745 554.489 0.951096 544.695 0.951096 532.614H-0.951096ZM5.55961 52.717C1.37883 57.133 -0.951096 62.9829 -0.951096 69.064H0.951096C0.951096 63.4694 3.09463 58.0875 6.94094 54.0248L5.55961 52.717ZM541.174 0.951096C553.255 0.951096 563.049 10.745 563.049 22.8263H564.951C564.951 9.69441 554.306 -0.951096 541.174 -0.951096V0.951096ZM66.6013 -0.951096C60.0695 -0.951096 53.8253 1.73597 49.3346 6.47927L50.716 7.78703C54.8474 3.4232 60.592 0.951096 66.6013 0.951096V-0.951096Z" fill="white" fill-opacity="0.15" mask="url(#path-1-inside-1_2037_181134)"/>
<defs>
<filter id="filter0_i_2037_181134" x="0" y="0" width="564" height="555.439" filterUnits="userSpaceOnUse" color-interpolation-filters="sRGB">
<feFlood flood-opacity="0" result="BackgroundImageFix"/>
<feBlend mode="normal" in="SourceGraphic" in2="BackgroundImageFix" result="shape"/>
<feColorMatrix in="SourceAlpha" type="matrix" values="0 0 0 0 0 0 0 0 0 0 0 0 0 0 0 0 0 0 127 0" result="hardAlpha"/>
<feMorphology radius="13.7841" operator="erode" in="SourceAlpha" result="effect1_innerShadow_2037_181134"/>
<feOffset/>
<feGaussianBlur stdDeviation="22.8263"/>
<feComposite in2="hardAlpha" operator="arithmetic" k2="-1" k3="1"/>
<feColorMatrix type="matrix" values="0 0 0 0 1 0 0 0 0 1 0 0 0 0 1 0 0 0 0.1 0"/>
<feBlend mode="normal" in2="shape" result="effect1_innerShadow_2037_181134"/>
</filter>
</defs>
</svg>
