<svg width="48" height="48" viewBox="0 0 48 48" fill="none" xmlns="http://www.w3.org/2000/svg">
<rect width="48" height="48" rx="24" fill="#888888"/>
<path d="M19.1624 7.15527C17.7741 7.1709 16.2424 7.35387 15.0816 7.76853C14.4743 7.98505 13.9737 8.26409 13.6446 8.58359C13.4267 8.79506 13.2869 9.01756 13.2129 9.26856C14.7456 9.2704 17.4431 9.332 19.2912 10.5916C19.7371 10.0105 19.8428 9.34671 19.7739 8.71139C19.7003 8.0632 19.4153 7.47385 19.1624 7.15527ZM28.375 7.15527C28.1222 7.47385 27.8372 8.0632 27.7636 8.71139C27.6946 9.34671 27.8004 10.0105 28.2463 10.5916C30.0943 9.332 32.7928 9.26856 34.3237 9.26856C34.2501 9.01756 34.1122 8.79506 33.8915 8.58359C33.5651 8.26409 33.0641 7.98505 32.4572 7.76853C31.2942 7.35387 29.7633 7.1709 28.375 7.15527ZM20.6151 9.06077C20.6151 9.42578 20.56 9.80274 20.4358 10.1714C21.461 11.1713 22.6195 11.654 23.7687 11.654C24.918 11.654 26.0765 11.1713 27.1016 10.171C26.9821 9.81515 26.9269 9.45198 26.9223 9.09938C24.7663 9.45474 22.6654 9.41245 20.6151 9.06077ZM16.7398 10.4518C16.703 11.1713 16.657 11.9436 16.5908 12.7619C17.0248 12.6148 17.4891 12.3849 17.9304 12.0907C18.2752 11.8609 18.6016 11.5942 18.8866 11.3138C18.2982 10.9047 17.5397 10.6334 16.7398 10.4518ZM30.7977 10.4523C29.9978 10.6334 29.2393 10.9047 28.6508 11.3138C28.9359 11.5942 29.2623 11.8609 29.607 12.0907C30.0484 12.3803 30.5127 12.6148 30.9448 12.7619C30.8804 11.9482 30.8345 11.1713 30.7977 10.4523ZM20.183 11.061C19.7417 11.7137 19.0981 12.3068 18.3901 12.7803C17.7925 13.1802 17.1489 13.4928 16.526 13.6491C16.772 13.925 17.0294 14.2238 17.2822 14.5364C18.3028 15.2075 19.1578 15.5155 20.0911 15.5155C21.0519 15.5155 22.1414 15.1754 23.5848 14.4536L23.7687 14.3617L23.9526 14.4536C25.3961 15.1754 26.4856 15.5155 27.4464 15.5155C28.3796 15.5155 29.2347 15.2075 30.2552 14.5364C30.5081 14.2238 30.7609 13.925 31.0092 13.6491C30.3885 13.4928 29.745 13.1802 29.1473 12.7803C28.4394 12.3068 27.7958 11.7137 27.3545 11.061C26.2696 11.9942 25.0237 12.4815 23.7687 12.4815C22.5137 12.4815 21.2679 11.9942 20.183 11.061ZM16.4079 14.7754C15.9601 19.1335 15.0857 24.2914 13.4984 28.677C14.6288 28.1254 15.8121 27.6703 17.0294 27.3163C16.6478 26.4107 16.269 24.9856 16.7582 23.5237C17.4156 21.5377 18.6246 19.6024 18.9372 19.1243C18.8728 18.5634 18.3947 17.5291 17.7236 16.5269C17.3236 15.9247 16.8593 15.3179 16.4079 14.7754ZM31.1287 14.7754C30.6736 15.3179 30.2139 15.9247 29.8139 16.5269C29.1427 17.5291 28.6646 18.5634 28.6003 19.1243C28.9129 19.6024 30.1219 21.5377 30.7793 23.5237C31.2666 24.9856 30.8896 26.4107 30.5081 27.3163C31.7263 27.6703 32.9078 28.1254 34.0386 28.677C32.4526 24.2914 31.5792 19.1335 31.1287 14.7754ZM23.355 15.4788C22.1276 16.0396 21.084 16.343 20.0911 16.343C19.5072 16.343 18.951 16.2373 18.3901 16.035C18.3993 16.0488 18.4039 16.058 18.4131 16.0672C19.1119 17.1153 19.6727 18.1359 19.7555 19.0277C20.0497 19.2714 20.5784 19.5058 21.2449 19.6621C21.484 19.7173 21.7414 19.7679 22.0035 19.8046C22.1092 19.5794 22.2793 19.3817 22.4815 19.23C22.7252 19.0461 23.024 18.922 23.355 18.8622V15.4788ZM24.1825 15.4788V18.8622C24.5135 18.922 24.8123 19.0461 25.0559 19.23C25.2582 19.3817 25.4283 19.5794 25.534 19.8046C25.7961 19.7679 26.0535 19.7173 26.2925 19.6621C26.9591 19.5058 27.4878 19.2714 27.782 19.0277C27.8647 18.1359 28.4256 17.1153 29.1243 16.0672C29.1335 16.058 29.1381 16.0488 29.1473 16.035C28.5865 16.2373 28.0302 16.343 27.4464 16.343C26.4534 16.343 25.4099 16.0396 24.1825 15.4788ZM23.7687 19.6529C23.4469 19.6529 23.1619 19.7541 22.978 19.892C22.7896 20.0345 22.7114 20.1862 22.7114 20.3425C22.7114 20.4988 22.7896 20.6505 22.978 20.793C23.1619 20.9309 23.4469 21.0321 23.7687 21.0321C24.0905 21.0321 24.3755 20.9309 24.5594 20.793C24.7479 20.6505 24.8261 20.4988 24.8261 20.3425C24.8261 20.1862 24.7479 20.0345 24.5594 19.892C24.3755 19.7541 24.0905 19.6529 23.7687 19.6529ZM19.4567 19.8506C19.0567 20.4942 18.0959 22.117 17.5397 23.7811C16.9283 25.6245 18.0224 27.4956 18.1741 27.7438C19.5532 28.3966 21.6587 28.7552 23.7687 28.7552C25.8788 28.7552 27.9843 28.3966 29.3634 27.7438C29.5151 27.4956 30.6092 25.6245 29.9978 23.7811C29.4415 22.117 28.4808 20.4942 28.0808 19.8506C27.6487 20.131 27.097 20.3287 26.4856 20.4712C26.2098 20.5356 25.9202 20.5907 25.6168 20.6321C25.5386 20.9631 25.3271 21.2481 25.0559 21.455C24.7111 21.7124 24.2606 21.8595 23.7687 21.8595C23.2768 21.8595 22.8263 21.7124 22.4815 21.455C22.2103 21.2481 21.9989 20.9631 21.9207 20.6321C21.6173 20.5907 21.3277 20.5356 21.0519 20.4712C20.4404 20.3287 19.8888 20.131 19.4567 19.8506Z" fill="#C1272D"/>
<path d="M23.3135 36.856C23.3349 36.5147 23.3935 36.2 23.4895 35.912C23.5855 35.624 23.6949 35.3867 23.8175 35.2C23.9402 35.008 24.0602 34.832 24.1775 34.672C24.2949 34.5067 24.3935 34.344 24.4735 34.184C24.5535 34.024 24.5935 33.8667 24.5935 33.712V32.928C24.5935 32.752 24.5349 32.616 24.4175 32.52C24.3002 32.4187 24.1589 32.368 23.9935 32.368C23.8015 32.368 23.6389 32.4213 23.5055 32.528C23.3775 32.6293 23.3135 32.784 23.3135 32.992V33.912H22.0655V32.976C22.0655 32.4747 22.2335 32.08 22.5695 31.792C22.9055 31.504 23.3802 31.36 23.9935 31.36C24.6015 31.36 25.0735 31.488 25.4095 31.744C25.7455 32 25.9135 32.3653 25.9135 32.84V33.664C25.9135 33.9093 25.8682 34.1387 25.7775 34.352C25.6922 34.5653 25.5855 34.7573 25.4575 34.928C25.3295 35.0987 25.1989 35.272 25.0655 35.448C24.9322 35.6187 24.8122 35.8267 24.7055 36.072C24.5989 36.312 24.5349 36.5733 24.5135 36.856H23.3135ZM24.5935 37.52V39H23.2495V37.52H24.5935Z" fill="#C1272D"/>
</svg>
