<svg width="21" height="20" viewBox="0 0 21 20" fill="none" xmlns="http://www.w3.org/2000/svg">
<path d="M15.7 0H5.3C4.02696 0 2.80606 0.516033 1.90589 1.43458C1.00571 2.35312 0.5 3.59894 0.5 4.89796L0.5 15.102C0.5 16.4011 1.00571 17.6469 1.90589 18.5654C2.80606 19.484 4.02696 20 5.3 20H15.7C16.973 20 18.1939 19.484 19.0941 18.5654C19.9943 17.6469 20.5 16.4011 20.5 15.102V4.89796C20.5 3.59894 19.9943 2.35312 19.0941 1.43458C18.1939 0.516033 16.973 0 15.7 0ZM16.38 14.5969V15.0255C16.4365 15.0192 16.4937 15.0251 16.5479 15.0426C16.6021 15.0602 16.6521 15.0891 16.6947 15.1275C16.7372 15.166 16.7715 15.213 16.7952 15.2658C16.819 15.3185 16.8317 15.3757 16.8325 15.4337V15.9167H12.5467V15.4328C12.5476 15.3748 12.5604 15.3176 12.5842 15.265C12.6081 15.2123 12.6424 15.1653 12.6851 15.1269C12.7278 15.0886 12.7778 15.0597 12.8321 15.0423C12.8863 15.0248 12.9435 15.0191 13 15.0255V14.5969C13 14.4099 13.1275 14.2551 13.2983 14.2075L13.29 10.4966C13.1583 9.01956 11.9233 7.86225 10.4208 7.86225C8.91833 7.86225 7.68333 9.01956 7.55167 10.4966L7.54333 14.2024C7.73333 14.2381 7.98667 14.3793 7.99333 14.5969V15.0255C8.04985 15.0192 8.10703 15.0251 8.16122 15.0426C8.2154 15.0602 8.26539 15.0891 8.30798 15.1275C8.35058 15.166 8.38484 15.213 8.40858 15.2658C8.43232 15.3185 8.44501 15.3757 8.44583 15.4337V15.9167H4.16V15.4328C4.16094 15.3749 4.17371 15.3178 4.1975 15.2652C4.22129 15.2126 4.25557 15.1656 4.29815 15.1273C4.34074 15.0889 4.39069 15.0601 4.44481 15.0426C4.49894 15.025 4.55605 15.0192 4.6125 15.0255V14.5969C4.6125 14.3818 4.78 14.2109 4.99083 14.1956V7.48214H4.5825L4.07417 5.7551H6.275V4.08333H14.5667V5.7551H16.9183L16.41 7.48129H16.0017V14.1956C16.2117 14.21 16.38 14.3827 16.38 14.5969Z" fill="white"/>
</svg>
