<svg width="46" height="45" viewBox="0 0 46 45" fill="none" xmlns="http://www.w3.org/2000/svg">
<path d="M23.1875 44.9492C23.1406 44.9492 23.075 44.9492 23.0188 44.938C22.5875 44.8583 22.0719 44.4598 21.7344 43.5495C21.3781 42.6402 21.3031 41.3436 21.6125 39.9552C21.9312 38.5836 22.5875 37.4014 23.3187 36.6795C24.0312 35.9577 24.6781 35.7608 25.1094 35.8358C25.5594 35.9014 26.0563 36.3139 26.3938 37.2139C26.75 38.1177 26.8438 39.432 26.525 40.8092C26.1969 42.1967 25.55 43.3677 24.8187 44.0848C24.2 44.7223 23.6281 44.9492 23.1875 44.9492ZM34.0062 32.8077C32.975 32.7795 31.6719 32.5077 30.4062 31.9733C28.9437 31.3358 27.8187 30.4827 27.2 29.6764C26.5812 28.8983 26.525 28.3077 26.7219 27.9608C26.9281 27.6139 27.5 27.2858 28.5969 27.2389C29.6938 27.1733 31.175 27.4452 32.6281 28.0639C34.0813 28.692 35.225 29.5545 35.8438 30.342C36.4625 31.1202 36.5094 31.7295 36.3125 32.0764C36.1156 32.4327 35.5344 32.742 34.4375 32.7795C34.2875 32.8077 34.1562 32.8077 34.0062 32.8077ZM21.2281 24.0983C20.6094 24.0889 20.0469 24.0139 19.5406 23.8827C18.4344 23.6014 17.7969 23.0952 17.5906 22.4858C17.3563 21.8764 17.5906 21.1452 18.3219 20.3577C19.0906 19.5889 20.3563 18.8483 21.9313 18.4358C23.4969 18.0233 25.0062 18.0327 26.1312 18.3327C27.2656 18.6233 27.9031 19.1389 28.1094 19.7389C28.325 20.3483 28.1094 21.0702 27.35 21.867C26.6094 22.6358 25.3438 23.3764 23.7688 23.7795C22.8781 24.0139 22.0063 24.1077 21.2281 24.0983ZM36.2937 18.6514L30.5 15.9045C30.8937 15.8858 31.8781 15.8577 31.8781 15.8577L32.4969 15.042L37.625 17.7139L36.2937 18.6514ZM31.1844 18.642L25.8031 16.092C26.3187 16.0639 27.5375 16.0452 28.025 16.017L32.6937 18.2295L31.1844 18.642ZM39.8656 17.6295L33.2562 14.1233L34.6156 12.3702L41.6 16.5514L39.8656 17.6295ZM13.7281 16.7764C13.4442 16.7769 13.1612 16.7455 12.8844 16.6827C6.18125 15.1358 2.225 15.0045 1.05312 15.0045H0.6875V4.92641C0.6875 4.92641 1.775 5.08579 3.58438 5.09516C7.08125 5.09516 13.2406 4.49516 19.2406 0.988912C19.5594 0.792037 20.2437 0.717035 21.0969 0.717035C23.375 0.717035 26.8344 1.26078 27.6312 1.56078C35.6562 4.57016 45.3125 12.8295 45.3125 12.8295L42.2656 15.492C42.2656 15.492 34.7844 10.7202 33.8375 10.2608C25.2969 6.07016 18.3781 8.68578 18.3781 8.68578C18.3781 8.68578 29.6188 8.40453 33.2281 11.2452L31.1094 14.4327C31.1094 14.4327 23.3469 14.6483 20.5812 15.0139C19.1375 15.2014 16.0156 16.7764 13.7281 16.7764Z" fill="#F5841F"/>
</svg>
