<svg width="18" height="19" viewBox="0 0 18 19" fill="none" xmlns="http://www.w3.org/2000/svg">
<path d="M0.75 7.99996C0.551088 7.99996 0.360322 7.92095 0.21967 7.78029C0.0790178 7.63964 0 7.44888 0 7.24996V1.25146C0 1.05255 0.0790178 0.861787 0.21967 0.721135C0.360322 0.580483 0.551088 0.501465 0.75 0.501465H6.75C6.94891 0.501465 7.13968 0.580483 7.28033 0.721135C7.42098 0.861787 7.5 1.05255 7.5 1.25146V7.24996C7.5 7.44888 7.42098 7.63964 7.28033 7.78029C7.13968 7.92095 6.94891 7.99996 6.75 7.99996H0.75ZM11.25 7.99996C11.0511 7.99996 10.8603 7.92095 10.7197 7.78029C10.579 7.63964 10.5 7.44888 10.5 7.24996V1.25146C10.5 1.05255 10.579 0.861787 10.7197 0.721135C10.8603 0.580483 11.0511 0.501465 11.25 0.501465H17.2485C17.4474 0.501465 17.6382 0.580483 17.7788 0.721135C17.9195 0.861787 17.9985 1.05255 17.9985 1.25146V7.24996C17.9985 7.44888 17.9195 7.63964 17.7788 7.78029C17.6382 7.92095 17.4474 7.99996 17.2485 7.99996H11.25ZM0.75 18.5C0.551088 18.5 0.360322 18.4209 0.21967 18.2803C0.0790178 18.1396 0 17.9489 0 17.75V11.75C0 11.5511 0.0790178 11.3603 0.21967 11.2196C0.360322 11.079 0.551088 11 0.75 11H6.75C6.94891 11 7.13968 11.079 7.28033 11.2196C7.42098 11.3603 7.5 11.5511 7.5 11.75V17.75C7.5 17.9489 7.42098 18.1396 7.28033 18.2803C7.13968 18.4209 6.94891 18.5 6.75 18.5H0.75ZM11.25 18.5C11.0511 18.5 10.8603 18.4209 10.7197 18.2803C10.579 18.1396 10.5 17.9489 10.5 17.75V11.75C10.5 11.5511 10.579 11.3603 10.7197 11.2196C10.8603 11.079 11.0511 11 11.25 11H17.2485C17.4474 11 17.6382 11.079 17.7788 11.2196C17.9195 11.3603 17.9985 11.5511 17.9985 11.75V17.75C17.9985 17.9489 17.9195 18.1396 17.7788 18.2803C17.6382 18.4209 17.4474 18.5 17.2485 18.5H11.25Z" fill="white"/>
</svg>
