<svg width="34" height="34" viewBox="0 0 34 34" fill="none" xmlns="http://www.w3.org/2000/svg">
<path d="M13.7188 2.22628L13.2266 1.91761C12.2633 1.32698 11.061 0.983857 10.0274 1.30589C8.91642 1.65183 8.03048 2.50753 7.56642 3.79284L6.90548 3.45253C5.76642 2.86612 5.17017 2.85698 4.67587 3.07917C4.28142 3.25565 3.87009 3.68034 3.40392 4.3005L9.19767 8.78011C10.1047 9.07542 11.4336 9.06839 12.7625 8.72386C14.0985 8.37933 15.4274 7.70432 16.3977 6.79729L18.5844 1.39026C16.6578 -0.132002 14.9 0.749716 13.7188 2.22628ZM17.4524 7.60589C16.257 8.81526 14.4781 9.63089 13.093 9.99651C12.6078 10.1231 12.1227 10.2145 11.6516 10.2637C11.3914 10.6926 11.1735 11.1285 11.0047 11.5645C11.3422 13.2801 11.975 14.6864 12.9242 15.8395L11.9117 16.6832C11.3281 15.9801 10.8078 15.2207 10.4141 14.377C10.3508 16.0082 10.7164 17.6957 11.3141 19.4535L10.0695 19.8754C8.97267 16.6692 8.60001 13.3856 10.1399 10.2918C9.61955 10.2496 9.12736 10.1512 8.67033 9.98948L8.64923 9.98245C8.34689 10.2707 8.05861 10.5731 7.78439 10.8895C5.56462 13.4629 4.34189 16.8871 4.98173 19.552C5.32416 20.9793 5.93798 22.3293 6.82111 23.4824C8.11486 23.4543 9.3383 23.4824 10.4492 23.9043C10.9766 23.8481 11.518 23.8129 12.0805 23.8129C14.0844 23.8129 15.8985 24.1856 17.2695 24.8324C17.8039 25.0856 18.2891 25.3879 18.6758 25.7324C18.6758 25.3598 18.732 24.959 18.8445 24.6637C18.2188 24.0731 17.825 23.3559 17.825 22.5403C17.825 21.4082 18.5774 20.4731 19.6672 19.7981C19.6672 19.4746 19.7305 19.1653 19.843 18.8699C19.1328 18.2582 18.6758 17.4989 18.6758 16.6129C18.6758 16.0574 18.8586 15.5512 19.168 15.0942C18.8586 14.6442 18.6758 14.1379 18.6758 13.5824C18.6758 13.3082 18.718 13.0551 18.7953 12.809C18.1133 12.2043 17.6844 11.459 17.6844 10.6012C17.6844 9.75042 18.1063 9.01214 18.7813 8.41448C18.3664 8.09104 17.9235 7.81682 17.4524 7.60589ZM25.2852 7.76761C23.457 7.76761 21.8047 8.15433 20.6727 8.72386C19.5336 9.29339 18.9992 9.99651 18.9992 10.6012C18.9992 11.2129 19.5336 11.916 20.6727 12.4856C21.8047 13.0551 23.457 13.4418 25.2852 13.4418C26.0797 13.4418 26.832 13.3645 27.5281 13.2379V12.0426C28.5055 11.8949 29.3141 11.6278 29.8344 11.2832V12.5207C30.7133 12.2676 31.557 11.3325 31.5781 10.6012C31.5781 9.99651 31.0438 9.29339 29.9047 8.72386C28.7656 8.15433 27.1203 7.76761 25.2852 7.76761ZM32.0703 12.5278C31.8383 12.7739 31.5641 13.0059 31.2547 13.2168L31.2688 15.2559C32.1547 14.7285 32.5695 14.1168 32.5695 13.5824C32.5695 13.2449 32.4078 12.8793 32.0703 12.5278ZM19.9906 13.6106C20.0117 14.2153 20.5461 14.8973 21.6641 15.4598C22.8031 16.0364 24.4484 16.416 26.2836 16.416C27.4297 16.416 28.5055 16.2614 29.4266 16.0082L29.4758 14.0957C28.2664 14.5176 26.832 14.7496 25.2852 14.7496C23.2813 14.7496 21.4602 14.3489 20.082 13.6598C20.0469 13.6457 20.0188 13.6246 19.9906 13.6106ZM20.1313 16.0574C20.0328 16.2473 19.9906 16.4371 19.9906 16.6129C19.9906 17.2246 20.525 17.9278 21.6641 18.4973C22.8031 19.0668 24.4484 19.4465 26.2836 19.4465C27.2117 19.4465 28.0906 19.3551 28.8852 19.1793V17.4918C28.0695 17.6465 27.1977 17.7239 26.2836 17.7239C24.2727 17.7239 22.4516 17.3301 21.0735 16.634C20.7289 16.4653 20.4125 16.2684 20.1313 16.0574ZM32.4289 16.0574C32 16.3598 31.6274 16.5848 31.1914 16.7746V18.3426C32.1266 17.8012 32.5695 17.1684 32.5695 16.6129C32.5695 16.4371 32.5274 16.2473 32.4289 16.0574ZM32.9563 18.6449C32.8156 18.7856 32.661 18.9192 32.4922 19.0528V21.3309C33.2164 20.8387 33.568 20.2973 33.568 19.8051C33.568 19.4324 33.3641 19.0317 32.9563 18.6449ZM20.9961 19.6293C20.9891 19.6926 20.982 19.7489 20.982 19.8051C20.982 20.4168 21.5164 21.1129 22.6555 21.6824C23.7945 22.259 25.4469 22.6387 27.275 22.6387C28.3227 22.6387 29.3211 22.5121 30.1859 22.3012V20.1989C29.0399 20.5645 27.7109 20.7614 26.2836 20.7614C24.2727 20.7614 22.4516 20.3606 21.0735 19.6715C21.0453 19.6574 21.0242 19.6434 20.9961 19.6293ZM20.0399 21.134C19.4281 21.591 19.1399 22.0903 19.1399 22.5403C19.1399 23.152 19.6742 23.8481 20.8133 24.4246C21.9524 24.9942 23.5977 25.3739 25.4328 25.3739C26.1008 25.3739 26.7477 25.3246 27.3524 25.2332V23.9535H27.275C25.2641 23.9535 23.443 23.5528 22.0649 22.8567C21.186 22.4207 20.4547 21.8371 20.0399 21.134ZM31.4656 23.2856C30.9102 23.4824 30.3055 23.6442 29.6586 23.7496V24.6004C29.7922 24.5442 29.9258 24.4879 30.0524 24.4246C30.7414 24.0731 31.2055 23.6793 31.4656 23.2856ZM32.1125 24.5653C31.8453 24.8324 31.536 25.0715 31.1914 25.2895V27.3004C32.1266 26.766 32.5695 26.1332 32.5695 25.5778C32.5695 25.2543 32.4219 24.9028 32.1125 24.5653ZM7.59455 24.7621C6.87736 24.7692 6.10392 24.8606 5.30236 25.0504C3.69853 25.4231 2.3197 26.1051 1.4197 26.8574C0.519703 27.6028 0.168141 28.3621 0.273609 28.9035C0.379078 29.4449 0.934547 29.9442 2.01736 30.2324C3.09666 30.5137 4.60627 30.5278 6.20939 30.1551C6.85627 30.0004 7.46095 29.8035 8.01642 29.5715V28.116C9.04298 27.659 9.80939 27.1106 10.1539 26.5762V28.2918C11.0047 27.5606 11.3352 26.8293 11.2367 26.2949C11.1383 25.7535 10.5758 25.2543 9.49298 24.9731C8.95158 24.8324 8.3047 24.7551 7.59455 24.7621ZM12.1367 25.1278C12.3266 25.402 12.4602 25.7114 12.5305 26.0559C12.6078 26.4778 12.5727 26.8856 12.4461 27.2864C13.1422 27.4692 13.775 27.7153 14.3235 28.0246C14.6328 28.1934 14.9211 28.3973 15.1742 28.6082C15.807 28.4606 16.3414 28.2496 16.7211 27.9965V29.4449C17.8531 28.9106 18.3735 28.2567 18.3735 27.7364C18.3735 27.209 17.8531 26.5551 16.7141 26.0207C15.582 25.4934 13.9508 25.1348 12.1367 25.1278ZM19.9977 25.4793C19.9906 25.5074 19.9906 25.5426 19.9906 25.5778C19.9906 26.1895 20.525 26.8856 21.6641 27.4621C22.8031 28.0317 24.4484 28.4114 26.2836 28.4114C27.2117 28.4114 28.0906 28.3129 28.8852 28.1442V26.2528C27.8445 26.534 26.6703 26.6887 25.4328 26.6887C23.4219 26.6887 21.6008 26.2879 20.2227 25.5989C20.1453 25.5567 20.068 25.5145 19.9977 25.4793ZM20.1945 28.102C20.0539 28.334 19.9906 28.559 19.9906 28.777C19.9906 29.3887 20.525 30.0848 21.6641 30.6614C22.8031 31.2309 24.4484 31.6106 26.2836 31.6106C27.2117 31.6106 28.0906 31.5121 28.8852 31.3434V29.4871C28.0695 29.6418 27.1977 29.7262 26.2836 29.7262C24.2727 29.7262 22.4516 29.3254 21.0735 28.6293C20.757 28.4746 20.4617 28.2989 20.1945 28.102ZM32.3656 28.102C31.9578 28.3762 31.5992 28.5942 31.1914 28.7699V30.4996C32.1266 29.9653 32.5695 29.3324 32.5695 28.777C32.5695 28.559 32.5063 28.334 32.3656 28.102ZM11.7922 28.4817C11.5461 28.791 11.2578 29.0864 10.9344 29.3535C9.83751 30.2746 8.29064 31.0199 6.5047 31.4348C5.86767 31.5824 5.23486 31.6739 4.62736 31.7231C4.85236 32.0957 5.24822 32.4614 5.82759 32.7848C6.78595 33.3262 8.1922 33.6918 9.75314 33.6918C10.4633 33.6918 11.1383 33.6145 11.757 33.4809V32.0184C12.7274 31.8707 13.543 31.6035 14.0633 31.259V32.5528C14.7664 32.0606 15.1039 31.5051 15.1039 30.9778C15.1039 30.366 14.6469 29.7121 13.6836 29.1707C13.1633 28.8824 12.5164 28.6434 11.7922 28.4817Z" fill="#FAB742"/>
</svg>
