<svg width="29" height="32" viewBox="0 0 29 32" fill="none" xmlns="http://www.w3.org/2000/svg">
<path d="M2.89088 1.57048C2.71859 1.41057 2.49269 1.32092 2.25763 1.31917C2.02257 1.31742 1.79536 1.40371 1.62071 1.56105C1.44607 1.71839 1.33662 1.93539 1.31392 2.16936C1.29121 2.40333 1.35689 2.63733 1.49802 2.82531L4.28217 5.89336C3.11799 7.80403 2.50409 9.9991 2.50816 12.2365C2.50816 17.8424 1.18745 22.1496 0.299665 23.6774C0.104877 24.0109 0.00151799 24.39 1.65934e-05 24.7762C-0.0014848 25.1625 0.0989253 25.5423 0.291114 25.8774C0.483303 26.2124 0.760471 26.4909 1.09465 26.6846C1.42883 26.8783 1.80819 26.9804 2.19445 26.9807H23.4528L26.5898 30.4315C26.7579 30.6162 26.9924 30.7265 27.2419 30.7383C27.4913 30.7501 27.7352 30.6623 27.9199 30.4942C28.1046 30.3261 28.215 30.0916 28.2268 29.8421C28.2386 29.5927 28.1507 29.3488 27.9827 29.1641L2.89088 1.57048ZM2.19445 25.0985C2.13991 25.0992 2.0862 25.085 2.03918 25.0573C1.99216 25.0297 1.95364 24.9897 1.9278 24.9416C1.90027 24.8939 1.88577 24.8398 1.88577 24.7848C1.88577 24.7297 1.90027 24.6756 1.9278 24.6279C3.11361 22.5888 4.3904 17.8346 4.3904 12.2365C4.38715 10.5335 4.80645 8.85633 5.61071 7.35523L21.7415 25.0985H2.19445ZM20.7031 31.0589C20.7031 31.3085 20.604 31.5479 20.4275 31.7244C20.251 31.9008 20.0116 32 19.762 32H9.7234C9.4738 32 9.23443 31.9008 9.05793 31.7244C8.88144 31.5479 8.78229 31.3085 8.78229 31.0589C8.78229 30.8093 8.88144 30.5699 9.05793 30.3934C9.23443 30.2169 9.4738 30.1178 9.7234 30.1178H19.762C20.0116 30.1178 20.251 30.2169 20.4275 30.3934C20.604 30.5699 20.7031 30.8093 20.7031 31.0589ZM28.1176 23.7464C28.0078 23.7903 27.8907 23.8126 27.7725 23.8123C27.5835 23.8121 27.3989 23.755 27.2428 23.6484C27.0866 23.5418 26.9663 23.3906 26.8973 23.2147C25.7679 20.3427 25.095 16.2378 25.095 12.2349C25.0951 10.4246 24.6205 8.64579 23.7185 7.07613C22.8165 5.50647 21.5186 4.2008 19.9544 3.2894C18.3901 2.378 16.6142 1.89274 14.8039 1.88204C12.9935 1.87134 11.212 2.33558 9.63713 3.22842C9.52958 3.29226 9.41039 3.33401 9.28651 3.35125C9.16264 3.36849 9.03657 3.36087 8.91568 3.32883C8.79478 3.29678 8.68149 3.24097 8.58241 3.16464C8.48334 3.08831 8.40047 2.99299 8.33866 2.88427C8.27684 2.77554 8.23732 2.65559 8.22239 2.53142C8.20747 2.40724 8.21745 2.28134 8.25174 2.16106C8.28604 2.04079 8.34396 1.92855 8.42213 1.83092C8.50029 1.73329 8.59714 1.65222 8.707 1.59244C10.5683 0.536804 12.6739 -0.0122064 14.8137 0.000205889C16.9534 0.0126182 19.0525 0.58602 20.9015 1.66318C22.7504 2.74034 24.2845 4.28359 25.3506 6.1389C26.4167 7.99421 26.9776 10.0967 26.9773 12.2365C26.9773 17.8362 28.2572 21.5285 28.6493 22.5276C28.7402 22.7598 28.7352 23.0185 28.6355 23.247C28.5358 23.4755 28.3496 23.6551 28.1176 23.7464Z" fill="#F47010"/>
</svg>
