<svg width="32" height="32" viewBox="0 0 32 32" fill="none" xmlns="http://www.w3.org/2000/svg">
<path d="M20.9993 28C20.9993 28.2652 20.8939 28.5196 20.7064 28.7071C20.5188 28.8946 20.2645 29 19.9993 29H11.9993C11.734 29 11.4797 28.8946 11.2921 28.7071C11.1046 28.5196 10.9993 28.2652 10.9993 28C10.9993 27.7348 11.1046 27.4804 11.2921 27.2929C11.4797 27.1054 11.734 27 11.9993 27H19.9993C20.2645 27 20.5188 27.1054 20.7064 27.2929C20.8939 27.4804 20.9993 27.7348 20.9993 28ZM27.7305 24C27.557 24.3056 27.3051 24.5595 27.0008 24.7353C26.6964 24.911 26.3507 25.0024 25.9993 25H5.99926C5.64768 24.9995 5.30243 24.9064 4.99833 24.73C4.69422 24.5535 4.44199 24.3 4.26707 23.9951C4.09214 23.6901 4.0007 23.3444 4.00197 22.9928C4.00323 22.6412 4.09715 22.2962 4.27426 21.9925C4.96801 20.7975 5.99926 17.4175 5.99926 13C5.99926 10.3478 7.05282 7.8043 8.92819 5.92893C10.8036 4.05357 13.3471 3 15.9993 3C18.6514 3 21.195 4.05357 23.0703 5.92893C24.9457 7.8043 25.9993 10.3478 25.9993 13C25.9993 17.4163 27.0318 20.7975 27.7255 21.9925C27.9044 22.2966 27.999 22.6429 27.9997 22.9957C28.0003 23.3486 27.907 23.6952 27.7293 24H27.7305ZM25.9993 23C25.033 21.3412 23.9993 17.5062 23.9993 13C23.9993 10.8783 23.1564 8.84344 21.6561 7.34315C20.1558 5.84285 18.121 5 15.9993 5C13.8775 5 11.8427 5.84285 10.3424 7.34315C8.84211 8.84344 7.99926 10.8783 7.99926 13C7.99926 17.5075 6.96426 21.3425 5.99926 23H25.9993Z" fill="white"/>
</svg>
