<svg width="15" height="15" viewBox="0 0 15 15" fill="none" xmlns="http://www.w3.org/2000/svg">
<g filter="url(#filter0_d_75_49018)">
<path d="M14 7.99805H9V12.998C9 13.2633 8.89464 13.5176 8.70711 13.7052C8.51957 13.8927 8.26522 13.998 8 13.998C7.73478 13.998 7.48043 13.8927 7.29289 13.7052C7.10536 13.5176 7 13.2633 7 12.998V7.99805H2C1.73478 7.99805 1.48043 7.89269 1.29289 7.70515C1.10536 7.51762 1 7.26326 1 6.99805C1 6.73283 1.10536 6.47848 1.29289 6.29094C1.48043 6.1034 1.73478 5.99805 2 5.99805H7V0.998047C7 0.73283 7.10536 0.478476 7.29289 0.29094C7.48043 0.103403 7.73478 -0.00195313 8 -0.00195312C8.26522 -0.00195313 8.51957 0.103403 8.70711 0.29094C8.89464 0.478476 9 0.73283 9 0.998047V5.99805H14C14.2652 5.99805 14.5196 6.1034 14.7071 6.29094C14.8946 6.47848 15 6.73283 15 6.99805C15 7.26326 14.8946 7.51762 14.7071 7.70515C14.5196 7.89269 14.2652 7.99805 14 7.99805Z" fill="white"/>
</g>
<defs>
<filter id="filter0_d_75_49018" x="0.5" y="-0.00195312" width="14.5" height="14.5" filterUnits="userSpaceOnUse" color-interpolation-filters="sRGB">
<feFlood flood-opacity="0" result="BackgroundImageFix"/>
<feColorMatrix in="SourceAlpha" type="matrix" values="0 0 0 0 0 0 0 0 0 0 0 0 0 0 0 0 0 0 127 0" result="hardAlpha"/>
<feOffset dx="-0.5" dy="0.5"/>
<feComposite in2="hardAlpha" operator="out"/>
<feColorMatrix type="matrix" values="0 0 0 0 1 0 0 0 0 1 0 0 0 0 1 0 0 0 0.5 0"/>
<feBlend mode="normal" in2="BackgroundImageFix" result="effect1_dropShadow_75_49018"/>
<feBlend mode="normal" in="SourceGraphic" in2="effect1_dropShadow_75_49018" result="shape"/>
</filter>
</defs>
</svg>
