<svg width="1512" height="982" viewBox="0 0 1512 982" fill="none" xmlns="http://www.w3.org/2000/svg">
<g clip-path="url(#clip0_1914_366336)">
<rect width="1512" height="982" fill="#0A0D15"/>
<path d="M576.889 623L-528 982" stroke="#151B2C" stroke-width="0.8975"/>
<path d="M594.838 623L-168.076 982" stroke="#151B2C" stroke-width="0.8975"/>
<path d="M612.789 623L47.0956 982" stroke="#151B2C" stroke-width="0.8975"/>
<path d="M630.738 623L196.782 982" stroke="#151B2C" stroke-width="0.8975"/>
<path d="M648.688 623L311.564 982" stroke="#151B2C" stroke-width="0.8975"/>
<path d="M666.639 623L405.81 982" stroke="#151B2C" stroke-width="0.8975"/>
<path d="M684.588 623L487.226 982" stroke="#151B2C" stroke-width="0.8975"/>
<path d="M702.539 623L560.401 982" stroke="#151B2C" stroke-width="0.8975"/>
<path d="M720.488 623L628.313 982" stroke="#151B2C" stroke-width="0.8975"/>
<path d="M738.438 623L693.085 982" stroke="#151B2C" stroke-width="0.8975"/>
<path d="M756.389 623V982" stroke="#151B2C" stroke-width="0.8975"/>
<path d="M774.338 623L819.69 982" stroke="#151B2C" stroke-width="0.8975"/>
<path d="M792.289 623L884.465 982" stroke="#151B2C" stroke-width="0.8975"/>
<path d="M810.238 623L952.376 982" stroke="#151B2C" stroke-width="0.8975"/>
<path d="M828.188 623L1025.55 982" stroke="#151B2C" stroke-width="0.8975"/>
<path d="M846.139 623L1106.97 982" stroke="#151B2C" stroke-width="0.8975"/>
<path d="M864.088 623L1201.21 982" stroke="#151B2C" stroke-width="0.8975"/>
<path d="M882.039 623L1316 982" stroke="#151B2C" stroke-width="0.8975"/>
<path d="M899.988 623L1465.68 982" stroke="#151B2C" stroke-width="0.8975"/>
<path d="M917.938 623L1680.85 982" stroke="#151B2C" stroke-width="0.8975"/>
<path d="M935.889 623L2040.78 982" stroke="#151B2C" stroke-width="0.8975"/>
<path d="M576.889 623H935.889" stroke="#151B2C" stroke-width="0.8975"/>
<path d="M576.889 623H935.889" stroke="#151B2C" stroke-width="0.8975"/>
<path d="M576.889 623H935.889" stroke="#151B2C" stroke-width="0.8975"/>
<path d="M576.889 623H935.89" stroke="#151B2C" stroke-width="0.8975"/>
<path d="M576.883 623.002H935.893" stroke="#151B2C" stroke-width="0.8975"/>
<path d="M576.857 623.01H935.918" stroke="#151B2C" stroke-width="0.8975"/>
<path d="M576.754 623.045H936.024" stroke="#151B2C" stroke-width="0.8975"/>
<path d="M576.41 623.156H936.367" stroke="#151B2C" stroke-width="0.8975"/>
<path d="M575.459 623.465H937.32" stroke="#151B2C" stroke-width="0.8975"/>
<path d="M573.131 624.221H939.645" stroke="#151B2C" stroke-width="0.8975"/>
<path d="M567.975 625.896H944.803" stroke="#151B2C" stroke-width="0.8975"/>
<path d="M557.412 629.328H955.364" stroke="#151B2C" stroke-width="0.8975"/>
<path d="M537.135 635.916H975.641" stroke="#151B2C" stroke-width="0.8975"/>
<path d="M500.254 647.9H1012.52" stroke="#151B2C" stroke-width="0.8975"/>
<path d="M436.176 668.721H1076.6" stroke="#151B2C" stroke-width="0.8975"/>
<path d="M329.129 703.502H1183.65" stroke="#151B2C" stroke-width="0.8975"/>
<path d="M156.289 759.66H1356.49" stroke="#151B2C" stroke-width="0.8975"/>
<path d="M-114.568 847.668H1627.34" stroke="#151B2C" stroke-width="0.8975"/>
<path d="M-528 982H2040.78" stroke="#151B2C" stroke-width="0.8975"/>
<path d="M304.5 759.5L118 847.5H259L397 759.5H304.5Z" fill="#10141C"/>
<path d="M1254 848L1115.5 759.5H1207.5L1395.5 847.5L1254 848Z" fill="#10141C"/>
<path d="M437.5 847.5L312 982H406L503 847.5H437.5Z" fill="#10141C"/>
<path d="M1075 847.5L1201 982H1107L1009.5 847.5H1075Z" fill="#10141C"/>
</g>
<defs>
<clipPath id="clip0_1914_366336">
<rect width="1512" height="982" fill="white"/>
</clipPath>
</defs>
</svg>
