<svg width="536" height="87" viewBox="0 0 536 87" fill="none" xmlns="http://www.w3.org/2000/svg">
<g filter="url(#filter0_i_2013_177212)">
<path d="M8.81257 7.02574C9.30476 3.01432 12.7115 0 16.753 0H527.958C532.763 0 536.484 4.20532 535.899 8.97427L527.187 79.9743C526.695 83.9857 523.288 87 519.247 87H8.04158C3.23687 87 -0.484021 82.7947 0.101112 78.0257L8.81257 7.02574Z" fill="#04180D"/>
</g>
<path d="M16.753 0.475548H527.958C532.478 0.475548 535.977 4.43089 535.427 8.91635L526.715 79.9163C526.253 83.6893 523.048 86.5245 519.247 86.5245H8.04158C3.52248 86.5245 0.0227698 82.5691 0.57312 78.0836L9.28458 7.08366C9.74751 3.31069 12.9518 0.475548 16.753 0.475548Z" stroke="white" stroke-opacity="0.15" stroke-width="0.951096"/>
<defs>
<filter id="filter0_i_2013_177212" x="0.0410156" y="0" width="535.918" height="87" filterUnits="userSpaceOnUse" color-interpolation-filters="sRGB">
<feFlood flood-opacity="0" result="BackgroundImageFix"/>
<feBlend mode="normal" in="SourceGraphic" in2="BackgroundImageFix" result="shape"/>
<feColorMatrix in="SourceAlpha" type="matrix" values="0 0 0 0 0 0 0 0 0 0 0 0 0 0 0 0 0 0 127 0" result="hardAlpha"/>
<feMorphology radius="13.7841" operator="erode" in="SourceAlpha" result="effect1_innerShadow_2013_177212"/>
<feOffset/>
<feGaussianBlur stdDeviation="22.8263"/>
<feComposite in2="hardAlpha" operator="arithmetic" k2="-1" k3="1"/>
<feColorMatrix type="matrix" values="0 0 0 0 1 0 0 0 0 1 0 0 0 0 1 0 0 0 0.1 0"/>
<feBlend mode="normal" in2="shape" result="effect1_innerShadow_2013_177212"/>
</filter>
</defs>
</svg>
