<svg width="24" height="24" viewBox="0 0 24 24" fill="none" xmlns="http://www.w3.org/2000/svg">
<path d="M4.90006 1.34619C4.86837 1.34619 4.83649 1.34675 4.8049 1.3476C4.04618 1.36799 3.32473 1.63391 2.72482 2.06244C1.12498 3.20516 0.355432 5.58899 1.85468 7.62744C3.03753 9.23539 2.52204 11.3586 1.29809 12.5449L1.90887 13.1733C3.42012 11.7086 4.0301 9.10639 2.56076 7.10886C1.33217 5.43847 1.98082 3.67138 3.23459 2.77588C3.86149 2.32804 4.62992 2.11916 5.40396 2.27197C6.14707 2.4185 6.91967 2.89588 7.60273 3.9126L4.79609 5.53705L5.93721 7.51893C3.59824 10.5163 3.17215 14.7585 5.18721 18.2592C7.83504 22.8592 13.6958 24.4374 18.2785 21.7837C22.8612 19.13 24.4302 13.2498 21.7824 8.64983C19.7709 5.1553 15.9038 3.40602 12.1526 3.93018L11.007 1.94089L8.36154 3.47169C7.5686 2.27207 6.57776 1.6101 5.57389 1.4121C5.34828 1.36757 5.12243 1.34624 4.90006 1.34619ZM12.8747 5.14888C16.62 5.14888 19.6628 8.16514 19.6628 11.9106C19.6628 15.6559 16.62 18.7002 12.8747 18.7002C9.12935 18.7002 6.11295 15.6559 6.11295 11.9106C6.11295 8.16528 9.12935 5.14888 12.8747 5.14888H12.8747ZM12.4484 6.32952V10.4634C11.8274 10.6599 11.363 11.2505 11.363 11.9268C11.363 12.7577 12.0643 13.4326 12.8952 13.4326C13.6837 13.4326 14.331 12.8248 14.3952 12.0527L17.9826 9.48046L17.4714 8.76852L14.1769 11.1313C13.9846 10.8138 13.6827 10.5692 13.3244 10.4589V6.32947H12.4484L12.4484 6.32952ZM10.4709 6.85986L9.7121 7.29786L10.3845 8.46238L11.1434 8.02297L10.471 6.85991L10.4709 6.85986ZM15.302 6.85986L14.6296 8.02293L15.3884 8.46238L16.0608 7.29786L15.302 6.85986ZM8.26489 8.74518L7.82689 9.50389L8.98985 10.1763L9.4279 9.41746L8.26479 8.74508L8.26489 8.74518ZM12.8952 11.2705C13.2528 11.2705 13.5251 11.5693 13.5251 11.9268C13.5251 12.2842 13.2528 12.5566 12.8953 12.5566C12.5378 12.5566 12.239 12.2843 12.239 11.9267C12.239 11.5693 12.5377 11.2705 12.8953 11.2705L12.8952 11.2705ZM7.29659 11.4815V12.3574H8.63984V11.4814L7.29659 11.4815ZM17.1316 11.4815V12.3574H18.4762V11.4814H17.1316L17.1316 11.4815ZM8.9899 13.664L7.82693 14.3349L8.26484 15.0937L9.4279 14.4213L8.9899 13.664ZM16.7829 13.664L16.345 14.4213L17.508 15.0937L17.946 14.3349L16.7829 13.664ZM10.3844 15.3779L9.7121 16.541L10.4709 16.979L11.1433 15.8158L10.3844 15.3778L10.3844 15.3779ZM15.3883 15.3779L14.6296 15.8158L15.302 16.979L16.0608 16.5409L15.3884 15.3778L15.3883 15.3779ZM12.4485 16.166V17.5092H13.3244V16.166H12.4484L12.4485 16.166Z" fill="white" fill-opacity="0.78"/>
</svg>
